<?xml version="1.0" standalone="no"?>
<!DOCTYPE svg PUBLIC "-//W3C//DTD SVG 20010904//EN"
 "http://www.w3.org/TR/2001/REC-SVG-20010904/DTD/svg10.dtd">
<svg version="1.0" xmlns="http://www.w3.org/2000/svg"
 width="310.000000pt" height="310.000000pt" viewBox="0 0 310.000000 310.000000"
 preserveAspectRatio="xMidYMid meet">
<metadata>
Created by potrace 1.16, written by Peter Selinger 2001-2019
</metadata>
<g transform="translate(0.000000,310.000000) scale(0.100000,-0.100000)"
fill="#000000" stroke="none">
<path d="M467 3048 c-17 -6 -33 -23 -42 -45 -8 -19 -19 -32 -24 -28 -15 9 -23
-54 -22 -168 0 -56 2 -661 4 -1344 l4 -1241 32 -27 c17 -15 30 -30 27 -33 -3
-3 -12 1 -21 8 -8 7 -15 10 -15 6 0 -3 15 -15 33 -26 31 -19 51 -20 445 -20
335 0 418 3 440 14 22 11 50 12 142 5 63 -4 198 -11 300 -15 154 -6 190 -4
215 8 26 13 54 13 225 2 286 -19 400 -18 426 4 54 43 52 -34 55 1447 4 1288 3
1372 -13 1402 -24 43 -55 63 -98 63 -19 0 -140 -27 -268 -60 -128 -33 -239
-60 -246 -60 -8 0 -17 15 -20 34 -9 46 -56 86 -103 86 -28 0 -481 -108 -529
-127 -8 -3 -14 1 -14 11 0 8 -16 30 -35 47 -19 17 -33 36 -32 42 1 6 -9 14
-23 18 -39 11 -811 9 -843 -3z m1502 -1164 c0 -599 -1 -1147 0 -1218 0 -71 -2
-126 -6 -123 -3 4 -7 123 -7 264 -1 252 -2 259 -24 298 -20 34 -21 36 -3 15
17 -21 21 -22 21 -7 0 10 -7 30 -16 45 -12 19 -12 22 -1 9 25 -30 22 83 -4
130 l-21 38 21 -24 21 -23 -1 178 c-1 99 -4 169 -6 157 -2 -13 -8 -23 -12 -23
-9 0 -1 73 9 80 4 3 9 29 12 58 8 79 -10 49 -32 -54 -10 -49 -18 -78 -19 -64
-2 47 29 212 44 233 13 18 15 96 15 516 l0 494 -27 -24 -28 -24 28 31 c22 25
27 39 27 84 0 29 2 51 5 48 3 -3 5 -495 4 -1094z m626 180 c-8 -25 -15 -53
-15 -64 0 -10 -5 -22 -12 -26 -6 -4 -8 -3 -4 4 3 6 9 199 12 429 3 230 7 425
10 433 3 8 -7 4 -22 -10 l-28 -25 25 35 c13 19 24 37 25 40 16 109 19 64 22
-333 2 -370 0 -446 -13 -483z m-594 -1753 c-5 -28 -9 476 -10 1290 0 735 2
1339 7 1343 10 11 14 -2577 3 -2633z m649 1305 c0 -747 -4 -1337 -9 -1340 -5
-3 -9 576 -9 1334 0 796 4 1340 9 1340 5 0 9 -542 9 -1334z m-1242 -3 c-2
-903 -3 -963 -8 -458 -5 630 -3 1495 5 1495 3 0 4 -467 3 -1037z m-715 422
c12 -11 30 -31 40 -45 10 -14 6 -2 -9 25 l-27 50 44 -45 c25 -25 55 -67 68
-95 50 -110 54 -115 82 -115 19 0 37 11 59 38 l32 37 -23 -40 c-40 -69 6 -21
82 87 69 97 103 134 79 87 -7 -15 2 -9 24 16 20 22 -10 -27 -68 -110 -57 -82
-110 -164 -119 -180 -23 -46 -55 -71 -74 -59 -9 5 -48 56 -87 112 -39 56 -95
137 -125 179 -38 55 -45 71 -26 53 27 -24 27 -23 -6 25 l-33 50 33 -25 c18
-14 42 -34 54 -45z m-151 -177 c56 -73 158 -204 226 -291 l123 -157 76 95 c41
52 77 95 81 95 3 0 -2 -8 -11 -18 -10 -10 -17 -26 -17 -36 0 -9 -4 -15 -8 -12
-11 7 -101 -116 -111 -152 -5 -15 -9 -84 -9 -153 -1 -68 -2 -126 -3 -129 -1
-3 -1 -8 0 -12 0 -5 -6 -8 -15 -8 -10 0 -14 6 -10 15 4 10 -1 15 -14 15 -19 0
-24 13 -21 52 1 9 -2 19 -7 22 -5 3 -9 -2 -9 -12 0 -9 -1 -26 -2 -37 l-2 -20
-9 20 c-11 27 -12 95 -1 95 5 0 11 9 14 20 3 13 0 20 -9 20 -8 0 -14 9 -14 20
0 13 -5 18 -15 14 -11 -5 -15 1 -15 21 0 15 -6 33 -14 39 -19 14 -25 52 -8 48
7 -1 12 9 12 27 0 16 3 37 7 47 4 11 3 15 -5 10 -6 -3 -13 -2 -17 4 -9 14 29
12 44 -2 10 -11 12 -10 9 2 -3 16 -23 28 -49 29 -11 1 -19 -10 -22 -29 -4 -16
-11 -30 -17 -30 -26 0 11 73 41 80 l21 5 -21 25 c-11 14 -20 19 -21 13 0 -7
-7 -13 -15 -13 -18 0 -19 12 -4 27 13 13 4 33 -17 33 -13 0 -18 -14 -17 -47 1
-7 -4 -13 -9 -13 -6 0 -8 11 -4 24 4 18 -8 41 -53 101 -38 51 -57 86 -55 101
1 15 -18 51 -57 104 -32 44 -57 80 -54 80 2 0 50 -60 107 -132z m2042 -155
c-10 -283 -17 -339 -36 -327 -6 4 -5 -2 1 -14 6 -11 11 -28 11 -38 0 -23 -24
-2 -40 35 -10 24 -6 63 19 228 34 214 39 243 46 243 2 0 2 -57 -1 -127z
m-2139 -43 c-10 -17 170 -220 196 -220 21 0 83 -72 103 -122 12 -28 14 -76 11
-239 -4 -235 -13 -481 -18 -486 -2 -1 -8 97 -15 220 -11 226 -20 291 -33 232
-4 -16 -8 -79 -9 -140 l-3 -110 -8 80 c-4 44 -9 113 -10 154 -2 66 -4 71 -17
55 -13 -17 -13 -16 -7 14 7 32 3 37 -74 113 -95 93 -108 125 -20 47 88 -77
142 -117 151 -112 11 7 10 108 -1 137 -5 14 -45 66 -88 116 -43 51 -93 113
-111 139 -19 26 -40 54 -48 63 -16 18 -20 84 -4 74 6 -4 8 -10 5 -15z m915
-19 c0 -17 -72 -110 -153 -200 -42 -47 -90 -103 -105 -125 l-27 -39 -7 -256
c-10 -335 -22 -381 -32 -116 -5 135 -3 224 4 273 9 55 9 76 0 87 -9 11 -9 23
0 49 12 36 78 112 109 124 18 7 190 192 191 205 0 11 20 9 20 -2z"/>
</g>
</svg>
