<?xml version="1.0" standalone="no"?>
<!DOCTYPE svg PUBLIC "-//W3C//DTD SVG 20010904//EN"
 "http://www.w3.org/TR/2001/REC-SVG-20010904/DTD/svg10.dtd">
<svg version="1.0" xmlns="http://www.w3.org/2000/svg"
 width="310.000000pt" height="310.000000pt" viewBox="0 0 310.000000 310.000000"
 preserveAspectRatio="xMidYMid meet">
<metadata>
Created by potrace 1.16, written by Peter Selinger 2001-2019
</metadata>
<g transform="translate(0.000000,310.000000) scale(0.137778,-0.137778)"
fill="#000000" stroke="none">
<path d="M40 2093 c0 -43 9 -289 20 -548 11 -259 21 -517 22 -574 l2 -104 154
-225 c179 -262 221 -320 339 -459 84 -99 89 -103 128 -103 67 0 459 68 516 89
69 26 533 131 578 131 41 0 334 85 374 108 16 10 27 24 25 34 -2 9 -158 139
-348 288 -190 149 -346 277 -348 283 -2 7 -7 21 -12 32 -5 11 -20 224 -34 474
-16 293 -29 457 -36 461 -58 36 -1152 190 -1347 190 l-33 0 0 -77z m523 -420
c-7 -2 -9 -11 -6 -18 4 -12 0 -12 -26 1 -33 16 -97 16 -94 -1 1 -5 15 -11 30
-13 15 -2 33 -8 38 -13 7 -7 4 -8 -8 -3 -13 5 -16 2 -11 -10 6 -14 -5 -21 -28
-17 -12 2 -9 -22 5 -40 7 -9 17 -14 23 -12 6 2 11 -3 11 -12 0 -8 -7 -15 -14
-15 -8 0 -11 -4 -8 -10 10 -16 62 -12 69 5 3 8 10 15 16 15 13 0 -16 -44 -30
-46 -6 -1 -11 -3 -12 -4 -9 -8 -56 -4 -55 5 1 5 -3 9 -10 8 -7 -2 -10 4 -7 12
4 10 0 15 -11 15 -9 0 -13 5 -10 10 4 6 0 21 -8 33 -17 27 -30 127 -17 127 6
0 10 -4 10 -10 0 -5 19 1 43 14 l42 23 40 -20 c22 -11 35 -22 28 -24z m201 -8
c12 -12 20 -13 35 -5 28 14 77 12 90 -4 11 -13 17 -13 46 0 24 10 41 11 60 4
33 -13 35 -36 9 -127 -13 -49 -17 -53 -44 -53 -35 0 -35 -1 -15 64 20 65 19
76 -5 76 -24 0 -43 -30 -60 -92 -11 -43 -16 -48 -41 -48 -34 0 -36 12 -14 84
15 50 13 66 -9 66 -22 0 -43 -33 -60 -90 -16 -55 -17 -56 -49 -52 l-33 4 25
94 c26 95 36 107 65 79z m426 -30 c-1 -5 -16 -9 -34 -7 -19 1 -38 -3 -45 -11
-9 -12 -4 -20 24 -41 39 -30 44 -55 18 -78 -28 -24 -53 -29 -100 -22 -56 8
-52 30 4 26 58 -5 65 14 20 52 -42 36 -45 48 -17 76 17 17 31 20 76 18 30 -2
54 -7 54 -13z"/>
</g>
</svg>
