<?xml version="1.0" standalone="no"?>
<!DOCTYPE svg PUBLIC "-//W3C//DTD SVG 20010904//EN"
 "http://www.w3.org/TR/2001/REC-SVG-20010904/DTD/svg10.dtd">
<svg version="1.0" xmlns="http://www.w3.org/2000/svg"
 width="310.000000pt" height="310.000000pt" viewBox="0 0 310.000000 310.000000"
 preserveAspectRatio="xMidYMid meet">
<metadata>
Created by potrace 1.16, written by Peter Selinger 2001-2019
</metadata>
<g transform="translate(0.000000,310.000000) scale(0.048438,-0.048438)"
fill="#000000" stroke="none">
<path d="M4365 5370 c-17 -18 -30 -20 -174 -20 -151 0 -165 -2 -491 -66 -463
-90 -430 -82 -430 -105 0 -12 -10 -23 -25 -29 -14 -5 -390 -82 -837 -171
l-813 -162 -180 -7 c-165 -7 -206 -12 -490 -69 -171 -34 -375 -75 -454 -90
-167 -33 -173 -38 -169 -120 3 -52 4 -55 38 -66 32 -11 35 -15 38 -57 3 -39 7
-47 28 -52 22 -6 24 -11 24 -61 0 -30 -3 -55 -6 -55 -3 0 -25 5 -49 11 -35 9
-46 17 -54 40 -10 28 -24 35 -54 23 -12 -4 -13 -11 -6 -34 9 -25 19 -30 90
-48 51 -13 90 -17 107 -13 25 7 27 11 25 59 -2 41 1 52 13 52 9 0 193 -43 410
-96 l395 -96 109 -81 c60 -45 109 -86 109 -92 1 -15 -597 -2627 -611 -2671
-12 -35 -17 -39 -48 -41 -19 -1 -26 1 -15 4 44 11 30 21 -100 67 l-134 48 -75
-22 -75 -23 5 -46 c3 -25 7 -51 9 -56 1 -6 34 -21 71 -34 38 -13 73 -27 77
-31 5 -4 -4 -17 -19 -29 l-27 -21 36 -15 c42 -17 111 -20 154 -5 30 11 55 3
428 -135 50 -18 268 -97 485 -175 217 -79 397 -145 399 -147 3 -1 -6 -14 -19
-28 -15 -16 -20 -29 -14 -35 15 -14 94 -30 94 -18 0 7 4 7 13 0 15 -13 60 -4
172 37 l80 29 3 58 3 59 -338 119 c-514 181 -468 161 -493 210 -19 35 -39 51
-124 98 -149 84 -141 75 -106 128 46 69 41 78 -28 53 -17 -7 -16 -1 19 144 33
139 135 573 309 1308 140 593 127 547 148 540 14 -4 56 54 207 291 163 256
191 295 209 290 12 -2 55 3 96 13 l75 18 5 54 5 54 310 72 c1544 357 2350 543
2360 543 7 0 39 -35 72 -77 l60 -78 -72 -240 c-39 -132 -181 -607 -315 -1055
-134 -448 -244 -816 -245 -817 0 -1 -33 -7 -72 -13 -68 -11 -78 -10 -190 22
-65 18 -119 35 -121 39 -1 3 -13 4 -25 2 -19 -4 -22 -11 -22 -51 l0 -47 75
-22 c41 -12 77 -22 79 -22 3 -1 -6 -12 -19 -26 l-23 -24 27 -11 c39 -15 128
-12 152 4 18 13 46 7 264 -55 135 -38 292 -82 350 -98 58 -15 239 -66 403
-112 l299 -83 -26 -22 c-22 -20 -23 -24 -10 -35 28 -23 193 -22 179 2 -4 5 7
9 23 9 15 0 49 7 74 16 46 15 46 15 50 67 2 29 3 54 1 56 -2 2 -27 -4 -57 -14
l-54 -19 -377 104 c-208 57 -372 106 -364 109 7 2 21 13 30 24 15 19 15 23 -3
53 -14 25 -43 43 -133 85 -63 29 -115 55 -115 57 0 2 17 27 37 54 l36 50 -41
-7 -41 -7 8 29 c30 103 674 2199 677 2202 2 2 15 -6 30 -18 42 -33 48 -27 41
39 l-7 60 113 1 c197 2 261 6 290 17 24 10 27 17 27 57 0 29 4 45 13 45 6 0
29 5 50 11 35 9 37 12 37 52 0 35 -7 50 -43 89 l-42 47 -855 131 c-470 72
-867 133 -881 136 -17 3 -31 -2 -44 -16z"/>
<path d="M5224 2198 c-4 -7 -3 -8 4 -4 18 11 429 -105 429 -121 0 -17 -8 -16
-32 1 -13 9 -27 10 -40 4 -18 -8 -18 -8 3 -4 12 2 22 0 22 -4 0 -7 47 -21 111
-34 8 -2 21 -6 29 -9 37 -15 159 -47 176 -47 10 1 29 7 42 14 21 11 -14 23
-350 114 -206 56 -377 102 -380 102 -4 0 -10 -5 -14 -12z"/>
<path d="M560 729 c-14 -4 -44 -13 -68 -19 -25 -6 -57 -26 -80 -48 -118 -119
-137 -158 -108 -226 10 -25 14 -52 10 -77 l-7 -39 41 0 c28 0 57 -10 98 -35
51 -31 66 -35 124 -35 58 0 74 4 123 34 32 19 74 36 95 38 36 3 37 4 37 43 1
22 7 57 14 78 23 66 3 105 -110 217 -43 42 -133 79 -169 69z"/>
</g>
</svg>
