<?xml version="1.0" standalone="no"?>
<!DOCTYPE svg PUBLIC "-//W3C//DTD SVG 20010904//EN"
 "http://www.w3.org/TR/2001/REC-SVG-20010904/DTD/svg10.dtd">
<svg version="1.0" xmlns="http://www.w3.org/2000/svg"
 width="310.000000pt" height="310.000000pt" viewBox="0 0 310.000000 310.000000"
 preserveAspectRatio="xMidYMid meet">
<metadata>
Created by potrace 1.16, written by Peter Selinger 2001-2019
</metadata>
<g transform="translate(0.000000,310.000000) scale(0.137778,-0.137778)"
fill="#000000" stroke="none">
<path d="M100 1365 l0 -595 450 0 450 0 0 -150 c0 -136 -2 -150 -17 -150 -10
-1 -65 -3 -123 -7 -95 -5 -108 -8 -135 -32 -32 -28 -34 -46 -14 -123 l10 -38
364 0 c200 0 370 -3 378 -6 23 -9 45 22 57 82 12 56 12 57 -17 85 -26 26 -34
28 -118 30 -49 1 -105 4 -122 6 l-33 5 0 149 0 149 448 2 447 3 3 48 c2 27 -2
55 -9 63 -6 8 -8 14 -3 14 5 0 9 235 9 530 l0 530 -1012 0 -1013 0 0 -595z
m1268 389 c40 -27 56 -33 62 -24 5 8 13 9 21 4 7 -4 27 -7 43 -6 22 2 39 -6
68 -35 21 -20 38 -34 38 -30 0 4 9 3 19 -2 17 -9 20 -6 26 35 6 44 7 45 35 39
24 -5 34 -1 56 22 16 17 34 27 47 25 25 -3 99 -33 107 -43 3 -3 20 -14 38 -23
17 -9 32 -18 32 -19 0 -24 -34 -107 -44 -107 -7 0 -18 -11 -24 -25 -9 -19 -19
-25 -42 -25 -17 0 -30 5 -31 13 0 10 -2 10 -6 0 -7 -19 -23 -16 -23 5 0 31 56
65 95 58 31 -6 33 -5 39 30 8 41 10 38 -27 57 -23 12 -36 12 -80 2 -96 -23
-100 -30 -63 -106 12 -24 6 -64 -6 -43 -12 20 -32 90 -30 101 4 17 -26 6 -54
-19 -15 -13 -24 -16 -29 -9 -3 6 -10 9 -15 6 -4 -3 -22 6 -39 20 -22 19 -36
24 -55 19 -18 -4 -27 -1 -36 15 -6 13 -21 21 -35 21 -33 0 -32 -18 1 -26 17
-4 23 -11 19 -22 -5 -15 21 -41 39 -38 8 1 33 -53 35 -76 2 -14 -31 -8 -57 11
-15 10 -37 22 -49 25 -16 5 -23 15 -23 32 0 15 -6 24 -16 24 -19 0 -56 -19
-66 -34 -5 -7 -8 -4 -8 7 0 9 7 17 16 17 8 0 12 5 9 10 -3 6 -14 10 -24 10
-14 0 -18 10 -20 53 -3 62 -12 74 -43 59 l-23 -11 23 0 c27 -1 41 -29 21 -42
-10 -6 -19 -2 -31 12 -17 20 -18 20 -12 -23 4 -23 10 -44 15 -46 15 -6 10 -49
-7 -63 -14 -11 -19 -10 -35 10 -18 22 -18 26 -4 41 24 26 18 38 -25 45 -39 7
-102 -7 -127 -28 -16 -11 -18 20 -4 42 10 16 76 17 129 2 l32 -10 0 39 c0 36
2 39 38 48 20 5 41 10 46 11 5 1 34 -15 64 -35z m732 -227 c0 -7 -6 -19 -12
-26 -11 -11 -10 -15 1 -19 10 -3 3 -10 -19 -22 l-33 -17 31 -6 c28 -6 31 -9
30 -47 0 -23 -7 -48 -15 -56 -8 -8 -13 -21 -10 -29 3 -7 -1 -19 -8 -25 -8 -7
-13 -16 -10 -20 3 -5 0 -12 -6 -16 -8 -4 -7 -9 2 -15 12 -7 12 -9 1 -9 -8 0
-22 -10 -33 -22 l-18 -23 -1 23 c0 12 6 22 13 22 7 0 13 8 13 18 1 9 3 31 6
48 3 17 2 38 -3 45 -5 8 -9 12 -10 9 0 -3 -2 -20 -5 -39 -2 -19 -15 -45 -29
-58 -22 -23 -27 -24 -62 -13 -74 24 -94 39 -83 60 5 10 10 30 10 44 0 25 3 26
58 27 73 2 114 11 104 24 -25 36 -67 55 -126 56 -55 1 -57 2 -26 9 19 5 62 10
96 12 46 2 61 6 60 17 -1 8 14 25 33 38 39 26 51 29 51 10z m-1670 -19 c0 -9
3 -9 12 0 8 8 55 12 145 12 l133 0 0 -65 c0 -60 2 -65 24 -71 13 -3 38 -4 57
-2 32 3 34 6 37 41 l3 39 117 -7 c64 -3 129 -9 145 -11 53 -11 61 -85 11 -104
-14 -6 -68 -10 -120 -10 -75 0 -94 3 -94 14 0 13 -4 13 -27 0 -42 -21 -155
-19 -184 5 -22 17 -24 17 -35 2 -10 -13 -36 -17 -148 -19 l-136 -4 0 67 0 67
123 -7 c67 -4 134 -13 148 -20 l27 -12 -1 46 c0 25 -2 36 -4 24 -4 -23 -6 -23
-169 -23 -90 0 -163 -3 -162 -7 2 -5 -15 -36 -36 -70 -35 -57 -42 -63 -73 -63
-25 0 -32 4 -27 13 4 6 32 49 62 95 l54 82 59 0 c39 0 59 -4 59 -12z m470 0
c0 -9 3 -9 12 0 8 8 51 12 126 12 112 0 113 0 110 -22 -3 -23 -6 -23 -155 -26
l-153 -3 0 26 c0 21 5 25 30 25 17 0 30 -5 30 -12z m-563 -622 c92 -19 204
-41 248 -50 l80 -15 -120 6 c-66 3 -123 7 -127 10 -4 2 -35 6 -68 8 -97 8
-279 75 -201 75 11 0 95 -15 188 -34z"/>
</g>
</svg>
