<?xml version="1.0" standalone="no"?>
<!DOCTYPE svg PUBLIC "-//W3C//DTD SVG 20010904//EN"
 "http://www.w3.org/TR/2001/REC-SVG-20010904/DTD/svg10.dtd">
<svg version="1.0" xmlns="http://www.w3.org/2000/svg"
 width="310.000000pt" height="310.000000pt" viewBox="0 0 310.000000 310.000000"
 preserveAspectRatio="xMidYMid meet">
<metadata>
Created by potrace 1.16, written by Peter Selinger 2001-2019
</metadata>
<g transform="translate(0.000000,310.000000) scale(0.024219,-0.043056)"
fill="#000000" stroke="none">
<path d="M5966 6862 c-4 -3 -6 -13 -6 -23 0 -20 24 -15 -494 -94 -276 -42
-371 -53 -376 -45 -5 9 -28 10 -78 5 -55 -5 -71 -11 -75 -24 -3 -13 -19 -20
-58 -25 -106 -14 -229 -39 -224 -46 2 -4 50 -1 107 6 184 22 173 22 173 -6 0
-23 -5 -25 -110 -43 -60 -10 -114 -22 -120 -28 -14 -14 132 -11 238 5 50 8
115 17 142 20 28 3 86 10 130 16 165 22 302 39 361 44 34 4 82 10 107 15 26 4
48 7 50 4 2 -2 62 4 133 13 71 9 140 18 154 19 14 1 34 6 45 10 24 10 14 -1
-37 -39 -36 -26 -56 -29 -395 -72 -197 -24 -479 -58 -628 -74 -351 -39 -477
-58 -492 -78 -9 -11 -13 -60 -13 -164 0 -138 -1 -148 -19 -148 -16 0 -19 -11
-25 -78 -7 -79 -3 -105 20 -132 10 -12 15 -202 23 -905 25 -2143 32 -3184 22
-3204 -6 -11 -9 -47 -6 -80 4 -56 7 -62 51 -103 26 -24 55 -61 64 -83 10 -22
31 -53 47 -70 16 -16 39 -45 52 -62 20 -30 27 -33 71 -33 27 0 59 -4 72 -9 13
-5 75 -24 138 -41 63 -18 147 -43 185 -55 70 -24 235 -73 522 -156 l153 -44 1
-237 c1 -131 2 -252 3 -269 1 -41 -6 -44 -35 -13 -13 15 -51 47 -83 72 l-59
46 7 -52 c4 -29 9 -59 12 -66 5 -12 142 -61 227 -82 15 -3 30 -10 33 -15 8
-13 0 -12 -83 16 -42 14 -77 24 -79 22 -5 -5 111 -105 149 -127 32 -19 53 -21
239 -23 151 -1 227 3 298 16 170 30 414 68 460 73 60 5 185 22 290 40 47 7
145 18 219 24 122 9 259 34 271 49 13 15 52 30 124 46 43 10 80 23 82 30 3 7
22 16 42 20 20 4 53 22 74 41 29 26 47 34 76 34 21 0 45 6 54 13 34 27 38 97
48 702 8 489 14 631 30 770 37 319 109 940 130 1128 l21 189 -21 306 c-31 463
-69 1009 -74 1077 -5 57 16 918 30 1255 4 98 2 186 -6 239 -6 46 -12 101 -12
122 0 30 -7 44 -25 59 -14 11 -29 17 -34 14 -5 -3 -8 -1 -7 4 2 5 -25 31 -59
56 -60 46 -66 48 -155 56 -51 5 -131 10 -178 10 -147 0 -220 10 -220 30 0 21
69 30 218 30 52 0 93 2 91 4 -2 2 -123 9 -269 15 -146 7 -280 14 -297 17 -33
5 -45 28 -20 37 6 2 -186 7 -428 11 -242 3 -510 9 -595 13 -137 5 -154 4 -143
-9 14 -16 8 -28 -13 -28 -8 0 -11 6 -7 17 5 14 1 15 -33 10 -21 -3 -33 -3 -26
0 6 2 12 9 12 14 0 10 -175 11 -184 1z m601 -158 c106 -15 198 -31 203 -34 17
-10 -23 -156 -41 -152 -20 5 -392 202 -404 214 -7 7 0 9 20 5 17 -2 117 -17
222 -33z m-382 -176 c50 -25 117 -61 150 -79 33 -19 108 -61 167 -94 121 -68
116 -58 93 -180 -9 -44 -27 -141 -40 -215 -14 -74 -32 -171 -40 -215 -38 -204
-81 -438 -140 -762 -36 -193 -76 -413 -90 -490 -14 -76 -32 -172 -40 -213 -7
-41 -26 -144 -41 -229 -16 -84 -30 -148 -32 -142 -2 6 -8 11 -13 11 -6 0 -6
-8 1 -19 5 -11 10 -26 9 -33 0 -7 -4 -4 -8 7 -8 19 -8 19 -20 -3 -7 -12 -9
-28 -5 -34 4 -6 3 -8 -3 -5 -7 5 -11 -6 -10 -29 1 -21 -5 -39 -13 -44 -12 -7
-12 -12 -2 -22 17 -17 15 -31 -3 -24 -11 4 -15 -2 -15 -20 0 -14 4 -22 10 -19
6 3 10 -1 10 -9 0 -8 -4 -18 -10 -21 -5 -3 -10 -20 -10 -36 0 -17 -5 -40 -12
-52 -6 -12 -11 -35 -10 -52 2 -23 0 -26 -8 -15 -6 10 -11 -24 -13 -110 -2 -69
-3 623 -2 1537 2 914 6 1667 10 1673 5 8 12 7 23 -3 10 -8 58 -34 107 -59z
m-1403 -1100 c-3 -13 -14 -34 -24 -48 -31 -43 -57 -138 -63 -228 -5 -70 -2
-102 14 -166 12 -43 28 -84 37 -90 8 -7 17 -23 18 -38 3 -27 90 -148 107 -148
6 0 7 5 4 10 -7 12 5 13 23 2 8 -5 10 -16 6 -27 -6 -15 -4 -17 11 -12 30 12
57 -2 49 -25 -5 -18 -3 -20 20 -14 19 5 29 1 38 -14 14 -22 60 -28 55 -7 -1 7
8 12 23 12 18 0 24 -5 22 -16 -1 -11 6 -18 22 -21 32 -6 48 4 40 25 -4 13 -1
17 15 17 24 0 27 -10 9 -28 -15 -15 10 -17 44 -3 13 5 45 15 72 22 32 8 78 34
128 72 67 50 86 72 133 150 46 77 56 104 66 170 11 74 23 96 32 60 3 -11 5 -5
6 12 3 55 23 -1 23 -64 1 -91 -58 -224 -141 -320 -16 -19 -28 -38 -25 -42 5
-9 -52 -53 -81 -63 -16 -5 -15 -3 5 14 14 11 -13 1 -60 -22 -81 -41 -89 -43
-190 -46 -87 -3 -117 0 -169 18 -113 38 -155 63 -231 140 -120 119 -170 243
-170 417 0 115 66 293 109 293 6 0 10 3 10 8 -2 14 1 22 10 22 5 0 7 -10 3
-22z m229 -1650 c58 -20 157 -88 177 -121 13 -23 33 -37 71 -51 29 -10 49 -21
43 -25 -5 -3 -13 -32 -16 -64 l-8 -58 -41 6 c-43 7 -103 38 -218 111 l-66 42
-7 72 c-4 49 -3 77 5 86 14 17 17 17 60 2z m2418 -1821 c9 -11 17 -128 12
-174 0 -7 -14 -13 -32 -13 -21 0 -28 4 -24 13 4 6 0 4 -8 -6 -18 -22 -72 -14
-63 10 3 8 6 31 6 52 0 24 10 54 30 84 30 48 57 60 79 34z"/>
<path d="M4974 3733 c-13 -22 -2 -90 17 -108 8 -7 49 -31 91 -54 74 -39 78
-40 88 -22 13 25 13 67 0 91 -7 13 -167 110 -182 110 -2 0 -8 -8 -14 -17z"/>
<path d="M5617 935 c4 -5 13 -18 21 -28 19 -22 31 -100 22 -142 l-7 -32 46 5
c67 7 81 17 81 57 0 19 5 35 10 35 6 0 10 5 10 11 0 5 -4 8 -9 5 -10 -6 -31
45 -31 75 0 11 -6 19 -12 20 -76 5 -135 2 -131 -6z"/>
</g>
</svg>
