<?xml version="1.0" standalone="no"?>
<!DOCTYPE svg PUBLIC "-//W3C//DTD SVG 20010904//EN"
 "http://www.w3.org/TR/2001/REC-SVG-20010904/DTD/svg10.dtd">
<svg version="1.0" xmlns="http://www.w3.org/2000/svg"
 width="310.000000pt" height="310.000000pt" viewBox="0 0 310.000000 310.000000"
 preserveAspectRatio="xMidYMid meet">
<metadata>
Created by potrace 1.16, written by Peter Selinger 2001-2019
</metadata>
<g transform="translate(0.000000,310.000000) scale(0.109541,-0.174157)"
fill="#000000" stroke="none">
<path d="M2011 1624 c-12 -15 -21 -31 -21 -37 0 -6 -3 -7 -6 -4 -4 4 1 18 10
32 9 14 12 25 7 25 -19 0 -33 -42 -29 -85 1 -24 0 -41 -3 -39 -4 2 -9 -14 -13
-34 -3 -21 -26 -69 -50 -106 -24 -37 -57 -92 -73 -122 l-28 -54 -76 0 -76 0
-7 -60 c-5 -43 -11 -60 -21 -60 -8 0 -15 -4 -15 -10 0 -5 6 -10 14 -10 18 0
16 -72 -2 -78 -21 -7 -13 -22 12 -22 15 0 27 -7 30 -18 4 -10 12 -19 19 -19 6
0 46 -4 88 -8 72 -7 76 -6 82 14 4 17 11 21 31 17 14 -3 26 0 26 5 0 5 -7 9
-15 9 -17 0 -22 55 -6 65 6 3 6 17 -1 35 -9 26 -6 34 16 61 14 17 26 37 26 45
0 8 10 34 22 57 l21 42 13 -30 c7 -16 13 -37 14 -46 0 -9 14 -63 31 -120 31
-107 179 -631 199 -706 l11 -43 178 0 c240 0 291 6 314 36 17 23 17 25 -6 71
-24 48 -130 283 -323 718 -93 210 -104 230 -128 233 -24 3 -26 7 -26 49 0 76
-51 133 -119 133 -28 0 -31 3 -31 29 0 20 -8 35 -22 45 -31 22 -43 20 -67 -10z"/>
<path d="M1213 1363 c-13 -9 -23 -22 -23 -31 0 -8 -3 -12 -7 -9 -3 4 -15 0
-25 -10 -10 -9 -19 -13 -19 -10 -1 4 -3 10 -4 15 -2 4 -6 18 -10 30 l-8 24
-161 -7 c-89 -4 -162 -8 -164 -10 -1 -1 -9 -39 -18 -83 -9 -45 -21 -82 -26
-82 -16 0 -68 30 -68 40 0 5 7 15 15 23 16 17 10 28 -11 20 -15 -5 -19 15 -6
32 11 16 34 17 43 3 6 -9 9 -7 9 8 0 12 -7 27 -15 34 -8 7 -15 8 -15 3 0 -5
-11 -15 -24 -21 -20 -9 -25 -8 -29 9 -4 15 -12 18 -39 15 -18 -3 -55 -5 -83
-6 -44 -2 -47 -3 -21 -10 15 -5 36 -16 46 -25 14 -12 20 -13 26 -4 10 17 34
-18 34 -51 0 -53 -90 -116 -183 -127 -49 -6 -51 -5 -35 11 19 19 14 48 -8 39
-20 -8 -17 -23 4 -17 9 3 4 -2 -11 -11 -17 -10 -39 -14 -53 -11 -30 8 -31 22
-2 30 22 7 22 8 4 15 -30 12 -2 24 35 16 24 -5 30 -4 24 5 -5 9 -24 11 -64 6
-51 -6 -54 -5 -36 8 11 9 28 16 38 16 10 0 32 7 49 16 24 12 28 18 17 25 -8 5
-22 9 -32 9 -10 0 -15 5 -12 10 8 13 81 13 107 -1 25 -14 32 -7 24 26 -6 24
-9 25 -84 25 l-77 -1 -47 -112 c-47 -111 -47 -112 -30 -142 16 -26 24 -30 58
-29 21 1 97 2 168 3 l128 1 35 35 c27 27 34 41 30 60 -2 14 0 28 5 31 4 3 5
10 2 16 -4 6 12 0 36 -13 37 -20 45 -31 54 -69 l11 -45 165 0 c213 0 213 0
222 56 3 24 11 55 16 69 9 21 11 13 11 -45 1 -41 6 -76 13 -83 14 -14 315 -17
337 -3 11 7 13 29 8 113 -4 59 -3 108 2 114 6 5 4 22 -5 43 -12 29 -17 33 -42
27 -43 -10 -236 -15 -247 -6 -5 4 -20 1 -32 -7z m161 -35 c14 -6 28 -19 32
-30 7 -23 24 -14 24 13 0 30 26 22 50 -16 12 -19 26 -35 31 -35 5 0 9 -12 9
-26 0 -77 -164 -130 -254 -82 -17 9 -17 11 5 21 32 17 36 37 7 36 -21 0 -22
-1 -3 -8 16 -7 13 -9 -18 -13 -21 -2 -42 1 -47 7 -16 20 7 39 48 39 61 1 46
36 -15 36 -34 0 -44 14 -19 23 8 3 41 3 73 0 l58 -6 -24 27 c-24 26 -24 26 -3
26 11 0 32 -5 46 -12z"/>
<path d="M505 971 c-33 -4 -103 -7 -156 -6 l-95 0 -32 -76 c-50 -116 -54 -113
161 -106 99 4 181 8 183 10 2 2 10 21 17 43 l14 39 61 3 c50 2 62 0 62 -12 0
-16 29 -11 40 5 8 12 187 16 236 5 32 -6 44 -5 57 9 23 22 21 47 -5 74 -19 22
-27 23 -86 17 -36 -4 -72 -11 -81 -16 -10 -5 -38 -4 -66 1 -50 10 -130 -5
-120 -21 7 -11 -20 -20 -55 -20 -24 0 -29 5 -32 28 -3 31 -12 33 -103 23z"/>
<path d="M697 749 c-16 -4 -39 -19 -53 -32 -14 -14 -36 -28 -50 -31 -40 -10
-166 -75 -191 -97 -26 -26 -68 -188 -59 -233 3 -16 1 -35 -6 -43 -8 -10 -8
-17 0 -25 6 -6 8 -17 5 -24 -6 -15 15 -18 35 -6 13 9 14 72 1 72 -4 0 -4 15 1
33 5 17 12 57 15 87 12 93 27 118 89 145 80 35 166 59 209 56 52 -3 77 7 77
29 0 32 -11 49 -27 43 -9 -4 -14 -2 -10 3 11 19 -8 31 -36 23z"/>
<path d="M217 640 c-41 -4 -62 -11 -68 -23 -6 -10 -14 -15 -20 -12 -5 4 -9 -3
-9 -15 0 -13 4 -19 12 -14 12 8 7 -4 -24 -48 -18 -26 -18 -27 0 -23 11 2 19
-3 19 -11 0 -8 -5 -13 -11 -11 -6 3 -17 -2 -24 -9 -11 -12 -3 -14 52 -11 37 2
66 -1 66 -5 0 -17 22 -7 50 22 17 17 30 39 30 50 0 10 5 22 10 25 6 3 10 25
10 48 0 48 2 47 -93 37z"/>
</g>
</svg>
