<?xml version="1.0" standalone="no"?>
<!DOCTYPE svg PUBLIC "-//W3C//DTD SVG 20010904//EN"
 "http://www.w3.org/TR/2001/REC-SVG-20010904/DTD/svg10.dtd">
<svg version="1.0" xmlns="http://www.w3.org/2000/svg"
 width="310.000000pt" height="310.000000pt" viewBox="0 0 310.000000 310.000000"
 preserveAspectRatio="xMidYMid meet">
<metadata>
Created by potrace 1.16, written by Peter Selinger 2001-2019
</metadata>
<g transform="translate(0.000000,310.000000) scale(0.138393,-0.138393)"
fill="#000000" stroke="none">
<path d="M1334 1710 c-17 -6 -36 -16 -42 -22 -9 -11 -20 -280 -39 -942 -5
-156 2 -183 50 -211 66 -39 302 -29 342 15 20 22 21 34 30 608 4 242 5 456 1
475 -5 25 -17 43 -38 59 -28 20 -46 23 -153 25 -66 1 -134 -2 -151 -7z"/>
</g>
</svg>
