<?xml version="1.0" standalone="no"?>
<!DOCTYPE svg PUBLIC "-//W3C//DTD SVG 20010904//EN"
 "http://www.w3.org/TR/2001/REC-SVG-20010904/DTD/svg10.dtd">
<svg version="1.0" xmlns="http://www.w3.org/2000/svg"
 width="310.000000pt" height="310.000000pt" viewBox="0 0 310.000000 310.000000"
 preserveAspectRatio="xMidYMid meet">
<metadata>
Created by potrace 1.16, written by Peter Selinger 2001-2019
</metadata>
<g transform="translate(0.000000,310.000000) scale(0.079082,-0.068889)"
fill="#000000" stroke="none">
<path d="M1160 4476 c-210 -62 -419 -258 -570 -534 -70 -128 -121 -218 -192
-334 -106 -174 -128 -236 -139 -397 -23 -333 -43 -419 -165 -686 -94 -208
-101 -244 -56 -337 43 -91 85 -144 126 -159 40 -14 36 4 56 -253 21 -265 89
-595 172 -836 48 -140 168 -388 236 -489 119 -176 255 -307 391 -375 119 -60
152 -66 385 -66 356 0 984 40 1104 71 245 62 477 246 666 529 31 46 56 86 56
90 0 4 -9 10 -20 13 -30 8 -24 27 8 27 16 0 36 8 44 18 25 28 315 498 382 617
128 228 177 344 226 537 27 104 33 147 37 284 6 168 -6 318 -32 397 l-14 42 5
-45 c3 -30 -7 -6 -30 70 -19 63 -33 116 -31 118 5 5 45 -106 46 -126 0 -11 3
-12 6 -4 9 23 -59 205 -128 343 -82 164 -140 265 -269 464 -53 83 -121 191
-151 240 -49 81 -58 90 -87 93 -35 4 -45 22 -12 22 30 0 25 20 -22 86 -247
348 -481 512 -773 543 -375 40 -1167 64 -1255 37z m629 -673 c31 -91 31 -94
21 -195 -12 -120 -21 -164 -57 -273 l-27 -80 -9 35 c-4 19 -18 67 -30 106 -19
61 -20 76 -10 110 17 56 16 174 -2 224 l-15 43 41 69 c23 38 45 65 49 61 4 -4
22 -50 39 -100z m1249 -553 c192 -54 346 -176 422 -334 146 -307 3 -656 -286
-694 l-59 -8 39 -13 c47 -16 131 -10 176 14 32 17 32 17 65 -15 54 -53 103
-162 116 -260 40 -303 -152 -569 -478 -662 -103 -29 -293 -31 -398 -4 -127 33
-231 91 -320 181 -92 92 -127 151 -155 261 -24 93 -25 141 -4 242 26 127 96
238 190 300 16 10 16 14 4 19 -8 3 -41 32 -73 65 -277 280 -112 764 307 898
37 13 91 26 120 31 82 13 252 2 334 -21z m-1588 -1225 c24 -157 84 -331 210
-609 105 -232 134 -329 151 -502 l9 -104 -40 -103 c-22 -56 -44 -108 -49 -115
-6 -10 -20 5 -50 53 -165 261 -287 618 -341 1000 -27 186 -43 416 -30 429 5 5
33 28 62 51 l53 42 6 -31 c4 -17 12 -67 19 -111z m-619 -37 c6 -62 -23 -88
-97 -88 -59 0 -74 14 -74 69 l0 31 85 0 c61 0 85 -4 86 -12z m9 -288 c20 -20
26 -63 14 -94 -9 -24 -125 -22 -147 2 -23 26 -32 78 -17 97 20 24 125 20 150
-5z m39 -310 c22 -11 45 -64 37 -85 -4 -11 -20 -15 -55 -15 -66 0 -97 13 -116
49 -28 54 -22 61 51 61 36 0 73 -4 83 -10z"/>
<path d="M3316 2895 c-10 -8 -23 -12 -29 -8 -6 4 -7 1 -2 -7 4 -7 4 -15 -1
-19 -5 -3 -22 -22 -38 -41 -16 -19 -49 -58 -75 -86 -25 -29 -68 -78 -96 -110
-27 -33 -66 -75 -85 -94 -19 -19 -37 -40 -39 -45 -6 -18 -59 -74 -65 -69 -3 2
-4 1 -1 -3 3 -3 0 -12 -6 -19 -13 -16 -40 -7 -33 11 4 10 -1 12 -15 8 -12 -3
-22 -12 -22 -19 -1 -8 -3 -18 -4 -24 -1 -5 -3 -18 -4 -27 -1 -10 -10 -28 -20
-41 -17 -19 -23 -21 -47 -12 -41 16 -147 29 -163 20 -10 -5 -4 -10 20 -15 19
-4 51 -16 72 -26 50 -26 49 -45 -3 -40 -13 2 -13 1 0 -8 13 -9 13 -11 -1 -11
-8 0 -26 -12 -40 -26 -13 -14 -40 -35 -59 -45 -53 -29 -121 -81 -136 -105 -13
-18 -12 -24 7 -47 11 -15 25 -27 30 -27 12 0 109 60 134 82 10 10 26 16 34 13
9 -3 12 -3 9 1 -7 7 70 74 85 74 5 0 15 7 23 15 21 21 29 19 43 -12 24 -52 25
-143 2 -210 -31 -91 -27 -135 16 -185 12 -13 15 -50 13 -187 0 -113 3 -171 10
-171 6 0 10 57 10 165 l0 165 34 0 c76 0 128 84 128 207 0 97 -27 174 -88 248
-41 51 -43 55 -30 80 8 15 39 54 69 88 30 34 66 75 79 92 12 16 39 47 58 67
19 21 46 51 59 67 13 17 29 27 34 24 6 -3 7 -1 3 5 -3 6 6 24 21 40 53 56 128
144 146 173 11 16 23 29 27 29 10 0 7 35 -5 63 -9 21 -33 22 -59 2z m49 -37
c0 -20 -44 -77 -180 -234 -327 -377 -308 -357 -319 -337 -5 10 -14 21 -19 25
-13 8 14 42 233 293 91 105 183 212 205 238 46 55 80 61 80 15z m-568 -618
l11 -30 -151 -106 c-170 -119 -189 -129 -212 -120 -36 13 -11 50 75 110 143
100 255 175 260 176 3 0 11 -14 17 -30z"/>
<path d="M2819 2877 c-101 -67 -111 -257 -20 -373 l20 -26 -5 64 c-9 87 10
129 76 170 50 31 65 57 62 103 -2 31 -22 62 -49 74 -34 16 -46 14 -84 -12z"/>
</g>
</svg>
