<?xml version="1.0" standalone="no"?>
<!DOCTYPE svg PUBLIC "-//W3C//DTD SVG 20010904//EN"
 "http://www.w3.org/TR/2001/REC-SVG-20010904/DTD/svg10.dtd">
<svg version="1.0" xmlns="http://www.w3.org/2000/svg"
 width="310.000000pt" height="310.000000pt" viewBox="0 0 310.000000 310.000000"
 preserveAspectRatio="xMidYMid meet">
<metadata>
Created by potrace 1.16, written by Peter Selinger 2001-2019
</metadata>
<g transform="translate(0.000000,310.000000) scale(0.154229,-0.123506)"
fill="#000000" stroke="none">
<path d="M974 1744 c-46 -16 -116 -79 -140 -126 -9 -18 -23 -38 -30 -46 -19
-19 -18 -96 2 -113 25 -21 49 1 52 49 2 23 -1 50 -7 60 -11 21 1 43 48 95 81
89 215 95 306 15 62 -55 69 -71 66 -153 -3 -89 -18 -106 -95 -113 -58 -5 -73
-17 -32 -28 37 -9 91 11 140 52 41 34 46 43 46 81 0 43 -13 69 -79 151 -63 81
-177 112 -277 76z"/>
<path d="M1007 1686 c-72 -26 -127 -101 -127 -172 0 -118 127 -210 235 -171
l40 15 -27 11 c-53 20 -28 61 38 61 58 0 74 19 74 83 -1 123 -122 213 -233
173z"/>
<path d="M860 1263 c-20 -21 -41 -47 -47 -57 -10 -18 -12 -18 -34 -2 -72 50
-169 -26 -185 -148 -8 -58 2 -112 27 -137 23 -23 91 -26 109 -4 15 17 35 20
24 4 -5 -8 1 -10 19 -7 20 4 32 -2 52 -23 18 -21 35 -29 58 -29 17 0 43 -3 56
-7 21 -5 23 -3 19 18 -3 13 -9 33 -13 44 -8 20 -8 20 13 1 23 -20 29 -65 12
-82 -6 -6 0 -21 16 -42 22 -28 31 -32 74 -32 41 0 52 4 73 30 22 26 24 33 14
59 -12 34 5 69 48 97 41 27 40 9 -1 -29 -50 -45 -42 -63 25 -61 59 2 83 18
112 75 10 21 31 41 48 49 26 11 30 17 33 59 l3 46 17 -39 c15 -32 22 -37 40
-32 13 3 29 6 35 6 9 0 7 16 -8 55 -20 53 -20 55 -2 105 16 46 16 53 3 78 -15
25 -21 27 -93 30 -43 2 -94 -2 -114 -7 -29 -8 -40 -7 -53 4 -13 12 -50 15
-179 15 l-163 0 -38 -37z m624 1 c11 -29 6 -79 -10 -102 -14 -21 -14 -26 1
-65 10 -23 19 -48 22 -54 3 -8 -4 -13 -20 -13 -19 0 -26 7 -32 28 -8 33 -32
72 -45 72 -5 0 -10 -26 -12 -57 -2 -47 -6 -58 -22 -61 -17 -4 -18 1 -11 83 6
79 5 86 -11 83 -25 -4 -29 19 -5 27 15 4 21 15 21 35 0 33 9 38 71 39 34 1 49
-3 53 -15z m-146 -16 c-2 -18 -11 -24 -38 -26 -42 -4 -60 -18 -60 -45 0 -17 5
-19 40 -13 38 6 40 5 40 -19 0 -21 -5 -25 -27 -25 -37 0 -49 -10 -55 -43 -5
-28 -5 -28 41 -25 40 2 46 0 49 -19 3 -23 -5 -28 -80 -38 l-48 -6 1 78 c1 43
4 103 7 133 l7 55 40 6 c79 12 87 11 83 -13z m-162 -95 c-10 -144 -15 -173
-33 -173 -14 0 -15 13 -10 88 l6 87 -22 -90 c-16 -63 -27 -91 -38 -93 -20 -4
-28 24 -30 103 -1 49 -3 54 -9 30 -4 -16 -8 -54 -9 -83 -1 -37 -5 -54 -16 -59
-9 -3 -18 -3 -21 0 -10 10 18 262 30 269 6 4 19 8 28 8 14 0 18 -15 24 -82 7
-76 8 -80 17 -48 38 145 36 140 63 140 l26 0 -6 -97z m-230 -30 c23 -128 23
-166 3 -171 -11 -2 -18 6 -22 28 -5 23 -12 30 -29 30 -31 0 -42 -9 -62 -47
-14 -29 -46 -46 -46 -26 0 4 21 69 48 145 41 120 50 138 69 138 19 0 23 -10
39 -97z m-176 67 c11 -11 20 -29 20 -40 0 -27 -28 -37 -44 -15 -34 47 -96 -18
-96 -102 0 -64 33 -85 78 -50 18 14 16 51 -3 43 -8 -3 -19 2 -24 12 -9 15 -10
14 -11 -7 0 -18 4 -22 20 -18 23 6 26 -3 8 -21 -35 -35 -65 2 -53 66 13 72 52
104 75 62 9 -16 6 -22 -20 -35 -37 -19 -39 -28 -4 -15 14 6 36 10 50 10 24 0
24 -2 18 -52 -4 -29 -10 -60 -15 -69 -10 -19 -69 -49 -97 -49 -86 0 -80 218 7
277 42 28 65 29 91 3z"/>
<path d="M849 819 c-22 -22 -19 -46 12 -91 11 -14 19 -36 19 -47 0 -12 9 -30
21 -42 21 -21 28 -21 116 -3 25 5 32 2 36 -13 5 -17 5 -17 6 1 1 19 8 19 84 0
39 -9 75 12 83 50 3 17 15 45 25 62 23 38 24 67 3 88 -27 27 -60 19 -91 -21
-41 -55 -53 -62 -105 -63 -63 0 -74 5 -109 56 -34 50 -66 57 -100 23z"/>
</g>
</svg>
